<svg width="144" height="102" viewBox="0 0 144 102" fill="none" xmlns="http://www.w3.org/2000/svg">
<path d="M2.84866 2H18.7751C21.3168 2 23.5594 3.42651 24.2986 5.51343L49.2312 75.9005C49.9704 77.9874 52.213 79.4139 54.7544 79.4139H110.93C113.572 79.4139 115.877 77.8753 116.526 75.6779L126.585 41.6561C127.234 39.4586 129.539 37.9201 132.18 37.9201H142.122" stroke="white" stroke-width="3.75648" stroke-linecap="round"/>
<path d="M85.201 21.7428C84.3556 21.0174 82.985 21.0174 82.1395 21.7428L68.3623 33.5667C67.517 34.2923 67.517 35.4686 68.3623 36.1942C69.2077 36.9197 70.5785 36.9197 71.424 36.1942L83.6702 25.6842L95.9166 36.1942C96.7621 36.9197 98.1327 36.9197 98.9781 36.1942C99.8236 35.4686 99.8236 34.2923 98.9781 33.5667L85.201 21.7428ZM85.8352 57.7381V23.0566H81.5054V57.7381H85.8352Z" fill="white"/>
<path d="M68.5162 99.8512C72.103 99.8512 75.0108 97.3557 75.0108 94.2774C75.0108 91.1991 72.103 88.7036 68.5162 88.7036C64.9293 88.7036 62.0216 91.1991 62.0216 94.2774C62.0216 97.3557 64.9293 99.8512 68.5162 99.8512Z" stroke="white" stroke-width="3.00518"/>
<path d="M100.268 99.8512C103.854 99.8512 106.762 97.3557 106.762 94.2774C106.762 91.1991 103.854 88.7036 100.268 88.7036C96.6806 88.7036 93.7729 91.1991 93.7729 94.2774C93.7729 97.3557 96.6806 99.8512 100.268 99.8512Z" stroke="white" stroke-width="3.00518"/>
</svg>
